<svg xmlns="http://www.w3.org/2000/svg" viewBox="0 0 841.89 595.28"><g opacity=".12"><path fill="#52B0C9" d="M24.376 77.638a4.567 4.567 0 0 1-4.563-4.562c0-2.516 2.047-4.562 4.563-4.562s4.563 2.046 4.563 4.562a4.567 4.567 0 0 1-4.563 4.562zm0-8.385a3.827 3.827 0 0 0-3.823 3.822c0 2.107 1.715 3.822 3.823 3.822s3.823-1.715 3.823-3.822a3.828 3.828 0 0 0-3.823-3.822zM90.267 220.715a4.567 4.567 0 0 1-4.563-4.562c0-2.516 2.047-4.562 4.563-4.562s4.563 2.046 4.563 4.562a4.567 4.567 0 0 1-4.563 4.562zm0-8.385a3.827 3.827 0 0 0-3.823 3.822c0 2.107 1.715 3.822 3.823 3.822s3.823-1.715 3.823-3.822a3.828 3.828 0 0 0-3.823-3.822zM208.87 135.999a4.567 4.567 0 0 1-4.563-4.562 4.567 4.567 0 0 1 4.563-4.562 4.567 4.567 0 0 1 4.563 4.562 4.568 4.568 0 0 1-4.563 4.562zm0-8.385a3.827 3.827 0 0 0-3.823 3.822 3.827 3.827 0 0 0 3.823 3.822 3.827 3.827 0 0 0 3.823-3.822 3.827 3.827 0 0 0-3.823-3.822zM301.117 77.638a4.567 4.567 0 0 1-4.563-4.562c0-2.516 2.047-4.562 4.563-4.562s4.563 2.046 4.563 4.562a4.567 4.567 0 0 1-4.563 4.562zm0-8.385a3.827 3.827 0 0 0-3.823 3.822c0 2.107 1.715 3.822 3.823 3.822s3.823-1.715 3.823-3.822a3.828 3.828 0 0 0-3.823-3.822zM391.482 103.995c-2.516 0-4.563-2.046-4.563-4.562s2.047-4.562 4.563-4.562c2.516 0 4.563 2.046 4.563 4.562s-2.047 4.562-4.563 4.562zm0-8.385c-2.108 0-3.823 1.715-3.823 3.822s1.715 3.822 3.823 3.822c2.108 0 3.823-1.715 3.823-3.822s-1.716-3.822-3.823-3.822zM491.259 119.055c-2.516 0-4.563-2.046-4.563-4.562s2.047-4.562 4.563-4.562c2.516 0 4.563 2.046 4.563 4.562s-2.047 4.562-4.563 4.562zm0-8.385a3.827 3.827 0 0 0-3.823 3.822 3.827 3.827 0 0 0 3.823 3.822 3.827 3.827 0 0 0 3.823-3.822 3.828 3.828 0 0 0-3.823-3.822zM560.915 284.724a4.567 4.567 0 0 1-4.563-4.562 4.567 4.567 0 0 1 4.563-4.562 4.567 4.567 0 0 1 4.563 4.562 4.568 4.568 0 0 1-4.563 4.562zm0-8.385c-2.108 0-3.823 1.715-3.823 3.822s1.715 3.822 3.823 3.822c2.108 0 3.823-1.715 3.823-3.822s-1.715-3.822-3.823-3.822zM677.636 299.784a4.567 4.567 0 0 1-4.563-4.562 4.567 4.567 0 0 1 4.563-4.562 4.567 4.567 0 0 1 4.563 4.562 4.567 4.567 0 0 1-4.563 4.562zm0-8.385c-2.108 0-3.823 1.715-3.823 3.822s1.715 3.822 3.823 3.822c2.108 0 3.823-1.715 3.823-3.822s-1.715-3.822-3.823-3.822zM607.98 113.408c-2.516 0-4.563-2.046-4.563-4.562s2.047-4.562 4.563-4.562c2.516 0 4.563 2.046 4.563 4.562s-2.047 4.562-4.563 4.562zm0-8.385c-2.108 0-3.823 1.715-3.823 3.822s1.715 3.822 3.823 3.822c2.108 0 3.823-1.715 3.823-3.822s-1.715-3.822-3.823-3.822zM573.666 66.998c-4.862 3.738-10.411-1.806-6.675-6.67 4.861-3.738 10.41 1.806 6.675 6.67zm-3.338-7.158a3.827 3.827 0 0 0-3.823 3.822 3.827 3.827 0 0 0 3.823 3.822 3.827 3.827 0 0 0 3.823-3.822 3.828 3.828 0 0 0-3.823-3.822zM679.518 24.926c-2.516 0-4.563-2.046-4.563-4.562s2.047-4.562 4.563-4.562 4.563 2.046 4.563 4.562-2.047 4.562-4.563 4.562zm0-8.385c-2.108 0-3.823 1.715-3.823 3.822s1.715 3.822 3.823 3.822 3.823-1.715 3.823-3.822-1.715-3.822-3.823-3.822zM457.372 41.869a4.567 4.567 0 0 1-4.563-4.562 4.567 4.567 0 0 1 4.563-4.562 4.567 4.567 0 0 1 4.563 4.562 4.567 4.567 0 0 1-4.563 4.562zm0-8.385c-2.108 0-3.823 1.715-3.823 3.822s1.715 3.822 3.823 3.822c2.108 0 3.823-1.715 3.823-3.822s-1.715-3.822-3.823-3.822zM440.429 243.306c-2.516 0-4.563-2.046-4.563-4.562s2.047-4.562 4.563-4.562 4.563 2.046 4.563 4.562-2.047 4.562-4.563 4.562zm0-8.384c-2.108 0-3.823 1.715-3.823 3.822s1.715 3.822 3.823 3.822 3.823-1.715 3.823-3.822-1.715-3.822-3.823-3.822zM478.081 237.659c-2.516 0-4.563-2.046-4.563-4.562s2.047-4.562 4.563-4.562c2.516 0 4.563 2.046 4.563 4.562s-2.047 4.562-4.563 4.562zm0-8.385c-2.108 0-3.823 1.715-3.823 3.822s1.715 3.822 3.823 3.822c2.108 0 3.823-1.715 3.823-3.822s-1.715-3.822-3.823-3.822zM809.417 32.456c-2.516 0-4.563-2.046-4.563-4.562s2.047-4.562 4.563-4.562 4.563 2.046 4.563 4.562-2.047 4.562-4.563 4.562zm0-8.385c-2.108 0-3.823 1.715-3.823 3.822s1.715 3.822 3.823 3.822 3.823-1.715 3.823-3.822-1.715-3.822-3.823-3.822zM713.405 183.063c-2.516 0-4.563-2.046-4.563-4.562s2.047-4.562 4.563-4.562 4.563 2.046 4.563 4.562-2.047 4.562-4.563 4.562zm0-8.384c-2.108 0-3.823 1.715-3.823 3.822s1.715 3.822 3.823 3.822 3.823-1.715 3.823-3.822-1.715-3.822-3.823-3.822zM604.215 188.711c-2.516 0-4.563-2.046-4.563-4.562s2.047-4.562 4.563-4.562c2.516 0 4.563 2.046 4.563 4.562s-2.047 4.562-4.563 4.562zm0-8.385c-2.108 0-3.823 1.715-3.823 3.822s1.715 3.822 3.823 3.822 3.823-1.715 3.823-3.822-1.715-3.822-3.823-3.822zM781.178 232.011c-2.516 0-4.563-2.046-4.563-4.562s2.047-4.562 4.563-4.562 4.563 2.046 4.563 4.562-2.046 4.562-4.563 4.562zm0-8.385c-2.108 0-3.823 1.715-3.823 3.822s1.715 3.822 3.823 3.822 3.823-1.715 3.823-3.822-1.715-3.822-3.823-3.822zM297.352 209.42c-2.516 0-4.563-2.046-4.563-4.562s2.047-4.562 4.563-4.562c2.516 0 4.563 2.046 4.563 4.562s-2.047 4.562-4.563 4.562zm0-8.385c-2.108 0-3.823 1.715-3.823 3.822s1.715 3.822 3.823 3.822c2.108 0 3.823-1.715 3.823-3.822s-1.715-3.822-3.823-3.822zM400.895 192.476c-2.516 0-4.563-2.046-4.563-4.562s2.047-4.562 4.563-4.562c2.516 0 4.563 2.046 4.563 4.562s-2.047 4.562-4.563 4.562zm0-8.384c-2.108 0-3.823 1.715-3.823 3.822s1.715 3.822 3.823 3.822c2.108 0 3.823-1.715 3.823-3.822s-1.716-3.822-3.823-3.822zM94.032 137.881c-2.516 0-4.563-2.046-4.563-4.562s2.047-4.562 4.563-4.562c2.516 0 4.563 2.046 4.563 4.562s-2.047 4.562-4.563 4.562zm0-8.385c-2.108 0-3.823 1.715-3.823 3.822s1.715 3.822 3.823 3.822c2.108 0 3.823-1.715 3.823-3.822s-1.715-3.822-3.823-3.822zM14.963 177.416c-2.516 0-4.563-2.046-4.563-4.562s2.047-4.562 4.563-4.562 4.563 2.046 4.563 4.562-2.047 4.562-4.563 4.562zm0-8.385c-2.108 0-3.823 1.715-3.823 3.822s1.715 3.822 3.823 3.822 3.823-1.715 3.823-3.822-1.715-3.822-3.823-3.822zM186.279 264.015a4.567 4.567 0 0 1-4.563-4.562c0-2.516 2.047-4.562 4.563-4.562s4.563 2.046 4.563 4.562a4.567 4.567 0 0 1-4.563 4.562zm0-8.385c-2.108 0-3.823 1.715-3.823 3.822s1.715 3.822 3.823 3.822 3.823-1.715 3.823-3.822-1.715-3.822-3.823-3.822zM176.866 45.634a4.567 4.567 0 0 1-4.563-4.562c0-2.516 2.047-4.562 4.563-4.562s4.563 2.046 4.563 4.562a4.567 4.567 0 0 1-4.563 4.562zm0-8.385c-2.108 0-3.823 1.715-3.823 3.822s1.715 3.822 3.823 3.822 3.823-1.715 3.823-3.822-1.715-3.822-3.823-3.822z"/><path fill="#52B0C9" d="M28.571 74.66l176.179 54.697-.28.9-176.178-54.7zM297.087 75.191l.497.8-85.074 52.81-.496-.799zM205.2 134.068l.544.769-111.552 78.992-.544-.769zM212.518 134.136l81.775 67.277-.599.727-81.774-67.277zM388.484 102.805l.698.633-89.264 98.615-.699-.633zM393.618 103.502l45.965 130.73-.888.312-45.965-130.73zM300.68 77.613l.942.03-3.828 122.653-.942-.03zM292.752 204.24l.055.94-197.942 11.6-.055-.941zM473.646 233.93l.14.93-28.739 4.315-.14-.93zM390.599-1.95l1.346 96.811-.941.013-1.346-96.81zM305.83 72.615l81.932 23.97-.264.903-81.932-23.97zM274.295-1.299l25.393 70.076-.885.32L273.409-.977zM21.293 75.276l.544.77-54.908 38.88-.544-.768zM58.27-2.152l.856.392L26.72 69.142l-.857-.392zM396.94 189.956l.29.894-206.643 67.186-.291-.894zM404.468 190.862l33.336 44.172-.75.566-33.337-44.171zM391.959 103.926l9.414 79.355-.934.11-9.414-79.354z"/><path fill="#52B0C9" d="M487.669 117.312l.595.729-83.12 68-.596-.729zM206.382 135.425l.93.15-19.383 119.575-.93-.15zM97.244 136.586l86.09 119.475-.765.551-86.09-119.475zM304.305 75.35l94.429 108.479-.71.618-94.428-108.48zM90.039 135.428l.412.846-71.35 34.742-.412-.846zM19.115 174.74l67.097 39.489-.478.812-67.098-39.489zM173.174 43.848l.703.629-76.648 85.61-.702-.628zM179.528 44.877l27.742 82.328-.893.3-27.741-82.328zM10.38 172.42l.047.942-43.735 2.22-.048-.941zM94.758 217.25l87.313 40.674-.398.853-87.312-40.675zM27.493 76.281l63.076 54.11-.614.715-63.076-54.11zM181.544 42.018l115.35 29.263-.232.912-115.35-29.263zM219.327-1.502l.655.679-40.04 38.626-.654-.679zM404.521-1.468l.544.767-100.247 71.16-.544-.767zM396.136 98.96l90.798 13.972-.143.93-90.798-13.972zM302.016 204.39l134.942 32.538-.22.916-134.943-32.538zM93.552 137.853l.942.048-3.742 73.71-.942-.048zM204.292 130.87l.018.941-105.706 2.062-.018-.94zM172.228 42.093l.192.921L28.96 72.802l-.191-.921zM482.25 234.908l74.94 42.568-.466.82-74.94-42.568zM602.088 188.155l.86.383-39.096 87.973-.86-.383zM600.092 185.97l.339.879-117.83 45.354-.34-.879zM490.8 118.28l.935.104-12.167 110.342-.934-.103zM495.615 116.036l105.633 64.461-.49.803-105.633-64.46zM607.573 113.389l.942.055-3.878 66.172-.942-.055zM459.937 41.14l29.552 69.21-.865.369-29.551-69.21zM461.878 37.959L566 62.116l-.213.918-104.123-24.158zM453.344 39.585l.647.681-59.136 56.113-.647-.682zM603.377 108.351l.04.941-107.738 4.627-.04-.942zM445.179-24.148l11.527 56.945-.923.187-11.528-56.945zM574.019 66.68l31.846 38.011-.72.605-31.848-38.011zM565.528 279.667l107.588 15.058-.131.933-107.588-15.057zM777.273 229.742l.518.786-95.778 63.11-.519-.786zM717.368 180.322l61.387 43.107-.541.77-61.387-43.107zM711.492 182.675l.9.276-33.067 108.027-.9-.276zM709.002 178.218l.051.942-100.249 5.481-.051-.941zM709.756 180.617l.522.783-145.243 96.823-.522-.783zM612.167 110.759l98.056 64.978-.52.785-98.055-64.979zM806.285 31.245l.794.504-90.8 143.168-.794-.504zM804.934 28.641l.14.93-230.148 34.561-.14-.93zM675.867 22.2l.335.878-101.77 38.747-.334-.879z"/><path fill="#52B0C9" d="M677.016 23.745l.86.386-70.33 156.738-.86-.386zM683.28 20.691l121.772 5.974-.046.94-121.773-5.974zM680.278-17.465l.942.035-1.235 33.26-.941-.035zM815.567-19.61l.93.143-6.618 42.913-.93-.144zM813.96 28.657l41.584 12.92-.28.898-41.582-12.919zM808.864 32.4l.93.133-27.104 190.444-.931-.132zM865.888 172.26l.51.79-81.107 52.433-.511-.79z"/><path fill="#52B0C9" d="M805.632 30.328l.342.877-193.965 75.633-.342-.877zM573.241-22.645l.941.039-3.384 82.478-.941-.039zM603.82 109.12l.659.673-122.985 120.301-.658-.673zM803.907 358.331a4.567 4.567 0 0 1 4.563-4.562 4.567 4.567 0 0 1 4.563 4.562 4.567 4.567 0 0 1-4.563 4.562 4.567 4.567 0 0 1-4.563-4.562zm.74 0c0 2.107 1.715 3.822 3.823 3.822s3.823-1.715 3.823-3.822-1.715-3.822-3.823-3.822-3.823 1.715-3.823 3.822zM738.017 501.408c0-2.516 2.047-4.562 4.563-4.562s4.563 2.046 4.563 4.562c0 2.516-2.047 4.562-4.563 4.562s-4.563-2.046-4.563-4.562zm.74 0c0 2.107 1.715 3.822 3.823 3.822s3.823-1.715 3.823-3.822-1.715-3.822-3.823-3.822-3.823 1.715-3.823 3.822zM619.413 416.692a4.567 4.567 0 0 1 4.563-4.562 4.567 4.567 0 0 1 4.563 4.562 4.567 4.567 0 0 1-4.563 4.562 4.567 4.567 0 0 1-4.563-4.562zm.74 0a3.827 3.827 0 0 0 3.823 3.822c2.108 0 3.823-1.715 3.823-3.822s-1.715-3.822-3.823-3.822a3.827 3.827 0 0 0-3.823 3.822zM527.166 358.331a4.567 4.567 0 0 1 4.563-4.562 4.567 4.567 0 0 1 4.563 4.562 4.567 4.567 0 0 1-4.563 4.562 4.567 4.567 0 0 1-4.563-4.562zm.74 0c0 2.107 1.715 3.822 3.823 3.822s3.823-1.715 3.823-3.822-1.715-3.822-3.823-3.822-3.823 1.715-3.823 3.822zM436.802 384.688a4.567 4.567 0 0 1 4.563-4.562 4.567 4.567 0 0 1 4.563 4.562 4.567 4.567 0 0 1-4.563 4.562 4.567 4.567 0 0 1-4.563-4.562zm.74 0a3.827 3.827 0 0 0 3.823 3.822 3.827 3.827 0 0 0 3.823-3.822 3.827 3.827 0 0 0-3.823-3.822 3.826 3.826 0 0 0-3.823 3.822zM337.024 399.748a4.567 4.567 0 0 1 4.563-4.562c2.516 0 4.563 2.046 4.563 4.562s-2.047 4.562-4.563 4.562a4.567 4.567 0 0 1-4.563-4.562zm.74 0a3.827 3.827 0 0 0 3.823 3.822c2.108 0 3.823-1.715 3.823-3.822s-1.715-3.822-3.823-3.822a3.828 3.828 0 0 0-3.823 3.822zM267.368 565.417a4.567 4.567 0 0 1 4.563-4.562 4.567 4.567 0 0 1 4.563 4.562 4.567 4.567 0 0 1-4.563 4.562 4.568 4.568 0 0 1-4.563-4.562zm.74 0a3.827 3.827 0 0 0 3.823 3.822c2.108 0 3.823-1.715 3.823-3.822s-1.715-3.823-3.823-3.823a3.828 3.828 0 0 0-3.823 3.823zM150.648 580.477c0-2.516 2.047-4.562 4.563-4.562s4.563 2.046 4.563 4.562-2.047 4.562-4.563 4.562-4.563-2.046-4.563-4.562zm.739 0c0 2.107 1.715 3.822 3.823 3.822s3.823-1.715 3.823-3.822-1.715-3.822-3.823-3.822-3.823 1.715-3.823 3.822zM220.304 394.101c0-2.516 2.047-4.562 4.563-4.562s4.563 2.046 4.563 4.562c0 2.516-2.047 4.562-4.563 4.562s-4.563-2.046-4.563-4.562zm.739 0c0 2.107 1.715 3.822 3.823 3.822s3.823-1.715 3.823-3.822-1.715-3.822-3.823-3.822-3.823 1.714-3.823 3.822zM265.856 345.583c3.736 4.864-1.813 10.408-6.675 6.67-3.736-4.864 1.813-10.408 6.675-6.67zm-7.161 3.335a3.827 3.827 0 0 0 3.823 3.822c2.108 0 3.823-1.715 3.823-3.822s-1.715-3.822-3.823-3.822a3.828 3.828 0 0 0-3.823 3.822zM148.765 305.619c0-2.516 2.047-4.562 4.563-4.562s4.563 2.046 4.563 4.562c0 2.516-2.047 4.562-4.563 4.562s-4.563-2.046-4.563-4.562zm.74 0c0 2.107 1.715 3.822 3.823 3.822s3.823-1.715 3.823-3.822-1.715-3.822-3.823-3.822-3.823 1.715-3.823 3.822zM370.911 322.562a4.567 4.567 0 0 1 4.563-4.562 4.567 4.567 0 0 1 4.563 4.562 4.567 4.567 0 0 1-4.563 4.562 4.567 4.567 0 0 1-4.563-4.562zm.74 0a3.827 3.827 0 0 0 3.823 3.822c2.108 0 3.823-1.715 3.823-3.822s-1.715-3.822-3.823-3.822a3.827 3.827 0 0 0-3.823 3.822zM387.854 523.999a4.567 4.567 0 0 1 4.563-4.562 4.567 4.567 0 0 1 4.563 4.562 4.567 4.567 0 0 1-4.563 4.562 4.567 4.567 0 0 1-4.563-4.562zm.74 0a3.827 3.827 0 0 0 3.823 3.822c2.108 0 3.823-1.715 3.823-3.822s-1.715-3.823-3.823-3.823a3.83 3.83 0 0 0-3.823 3.823zM350.202 518.352a4.567 4.567 0 0 1 4.563-4.562 4.567 4.567 0 0 1 4.563 4.562 4.567 4.567 0 0 1-4.563 4.562 4.568 4.568 0 0 1-4.563-4.562zm.74 0a3.827 3.827 0 0 0 3.823 3.822 3.827 3.827 0 0 0 3.823-3.822 3.828 3.828 0 0 0-3.823-3.823 3.829 3.829 0 0 0-3.823 3.823zM18.866 313.149c0-2.516 2.047-4.562 4.563-4.562s4.563 2.046 4.563 4.562c0 2.516-2.047 4.562-4.563 4.562s-4.563-2.046-4.563-4.562zm.74 0c0 2.107 1.715 3.822 3.823 3.822s3.823-1.715 3.823-3.822-1.715-3.822-3.823-3.822-3.823 1.715-3.823 3.822zM114.878 463.756c0-2.516 2.047-4.562 4.563-4.562s4.563 2.046 4.563 4.562c0 2.516-2.047 4.562-4.563 4.562s-4.563-2.046-4.563-4.562zm.74 0c0 2.107 1.715 3.822 3.823 3.822s3.823-1.715 3.823-3.822-1.715-3.822-3.823-3.822-3.823 1.715-3.823 3.822zM224.069 469.404c0-2.516 2.047-4.562 4.563-4.562s4.563 2.046 4.563 4.562-2.047 4.562-4.563 4.562-4.563-2.046-4.563-4.562zm.74 0c0 2.107 1.715 3.822 3.823 3.822s3.823-1.715 3.823-3.822-1.715-3.822-3.823-3.822-3.823 1.715-3.823 3.822zM47.105 512.704a4.567 4.567 0 0 1 4.563-4.562 4.567 4.567 0 0 1 4.563 4.562 4.567 4.567 0 0 1-4.563 4.562 4.567 4.567 0 0 1-4.563-4.562zm.74 0a3.828 3.828 0 0 0 3.823 3.823 3.827 3.827 0 0 0 3.823-3.823 3.827 3.827 0 0 0-3.823-3.822 3.826 3.826 0 0 0-3.823 3.822zM530.931 490.113a4.567 4.567 0 0 1 4.563-4.562 4.567 4.567 0 0 1 4.563 4.562 4.567 4.567 0 0 1-4.563 4.562 4.567 4.567 0 0 1-4.563-4.562zm.74 0a3.827 3.827 0 0 0 3.823 3.822c2.108 0 3.823-1.715 3.823-3.822s-1.715-3.822-3.823-3.822a3.827 3.827 0 0 0-3.823 3.822zM427.389 473.169a4.567 4.567 0 0 1 4.563-4.562 4.567 4.567 0 0 1 4.563 4.562 4.567 4.567 0 0 1-4.563 4.562 4.567 4.567 0 0 1-4.563-4.562zm.74 0a3.827 3.827 0 0 0 3.823 3.822 3.827 3.827 0 0 0 3.823-3.822 3.827 3.827 0 0 0-3.823-3.822 3.827 3.827 0 0 0-3.823 3.822zM734.251 418.574a4.567 4.567 0 0 1 4.563-4.562c2.516 0 4.563 2.046 4.563 4.562s-2.047 4.562-4.563 4.562a4.567 4.567 0 0 1-4.563-4.562zm.74 0a3.827 3.827 0 0 0 3.823 3.822c2.108 0 3.823-1.715 3.823-3.822s-1.715-3.822-3.823-3.822a3.828 3.828 0 0 0-3.823 3.822zM813.32 458.109a4.567 4.567 0 0 1 4.563-4.562 4.567 4.567 0 0 1 4.563 4.562 4.567 4.567 0 0 1-4.563 4.562 4.567 4.567 0 0 1-4.563-4.562zm.74 0a3.827 3.827 0 0 0 3.823 3.822c2.108 0 3.823-1.715 3.823-3.822s-1.715-3.822-3.823-3.822a3.827 3.827 0 0 0-3.823 3.822zM642.004 544.708a4.567 4.567 0 0 1 4.563-4.562c2.516 0 4.563 2.046 4.563 4.562s-2.047 4.562-4.563 4.562a4.567 4.567 0 0 1-4.563-4.562zm.74 0a3.827 3.827 0 0 0 3.823 3.822c2.108 0 3.823-1.715 3.823-3.822s-1.715-3.822-3.823-3.822a3.827 3.827 0 0 0-3.823 3.822zM651.417 326.327a4.567 4.567 0 0 1 4.563-4.562 4.567 4.567 0 0 1 4.563 4.562 4.567 4.567 0 0 1-4.563 4.562 4.567 4.567 0 0 1-4.563-4.562zm.74 0a3.827 3.827 0 0 0 3.823 3.822c2.108 0 3.823-1.715 3.823-3.822s-1.715-3.822-3.823-3.822a3.828 3.828 0 0 0-3.823 3.822z"/><path fill="#52B0C9" d="M804.565 360.853L628.386 415.55l-.279-.899 176.179-54.698zM620.84 413.227l-.496.8-85.074-52.811.497-.8zM739.204 498.321l-.544.769-111.552-78.993.544-.768zM620.964 420.12l-81.774 67.277-.599-.728 81.775-67.277zM533.63 486.644l-.698.633-89.265-98.615.699-.633zM440.097 389.098l-45.964 130.73-.888-.312 45.965-130.73zM536.017 485.52l-.941.03-3.829-122.654.942-.029zM738.025 501.095l-.055.941-197.942-11.599.055-.941zM534.067 494.419L502.71 603.667l-.904-.26 31.358-109.248zM429.134 603.296l-.853.397-34.99-75.17.854-.396zM387.943 523.524l-.14.93-28.738-4.315.14-.93zM527.293 358.747l-81.932 23.97-.264-.903 81.931-23.97zM866.47 399.417l-.545.769-54.908-38.882.544-.768zM861.72 603.732l-.615.713-115.582-99.493.614-.713z"/><path fill="#52B0C9" d="M642.548 542.378l-.29.894-206.644-67.186.29-.894zM429.1 476.718l-33.337 44.171-.75-.566 33.336-44.172zM441.843 389.285l-9.414 79.355-.933-.11 9.414-79.355zM428.272 470.587l-.596.728-83.12-68 .595-.728zM645.835 540.284l-.93.15-19.382-119.574.93-.15zM736.385 422.417l-86.091 119.476-.765-.552 86.09-119.475zM529.232 361.204l-94.428 108.479-.71-.618 94.428-108.48zM814.144 455.454l-.412.846-71.35-34.743.412-.846zM814.224 460.86l-67.097 39.488-.478-.812 67.097-39.49zM736.351 414.719l-.702.629L659 329.737l.702-.63zM654.241 330.42l-27.74 82.328-.893-.3 27.74-82.329zM645.82 549.24l-16.794 54.413-.901-.278 16.794-54.414zM866.225 459.895l-.048.942-43.735-2.22.048-.942zM738.456 503.333l-87.312 40.675-.398-.853 87.313-40.675zM805.966 362.288l-63.076 54.109-.614-.716 63.076-54.109zM651.525 328.193l-115.35 29.263-.231-.912 115.35-29.263zM436.87 385.128L346.07 399.1l-.143-.93 90.799-13.973zM504.921 603.318l-.823.456-70.42-127.217.822-.455z"/><path fill="#52B0C9" d="M626.415 603.176l-.739.585-87.232-110.277.739-.585zM531.06 490.588l-134.942 32.539-.221-.916 134.942-32.538zM739.59 504.828l-103.55 99.655-.652-.678 103.55-99.655zM743.055 496.817l-.942.047-3.742-73.71.942-.048zM734.28 418.198l-.018.941-105.706-2.062.019-.94zM804.058 357.1l-.191.92-143.46-29.787.191-.921z"/><path fill="#52B0C9" d="M837.228 603.168l-.276.901-186.374-57.05.276-.901zM855.58 604.029l-.911.231-35.987-141.667.912-.231z"/><g><path fill="#52B0C9" d="M351.02 521.008l-74.94 42.568-.464-.82 74.94-42.567z"/></g><g><path fill="#52B0C9" d="M269.88 561.405l-.86.383-39.096-87.974.86-.382z"/></g><g><path fill="#52B0C9" d="M350.606 516.618l-.338.88-117.83-45.355.338-.879z"/></g><g><path fill="#52B0C9" d="M354.198 513.862l-.934.103-12.167-110.343.934-.103z"/></g><g><path fill="#52B0C9" d="M337.752 402.1L232.12 466.563l-.49-.804 105.632-64.46z"/></g><g><path fill="#52B0C9" d="M229.152 464.808l-.941.055-3.878-66.173.941-.055z"/></g><g><path fill="#52B0C9" d="M373.75 326.771l-29.55 69.21-.865-.37 29.551-69.21z"/></g><g><path fill="#52B0C9" d="M371.16 324.139l-104.123 24.157-.213-.917 104.124-24.158z"/></g><g><path fill="#52B0C9" d="M438.655 380.948l-.647.682-59.137-56.113.647-.682z"/></g><g><path fill="#52B0C9" d="M337.188 398.242l-.04.941-107.738-4.626.04-.941z"/></g><g><path fill="#52B0C9" d="M259.553 352.557l-31.847 38.01-.72-.604 31.846-38.01z"/></g><g><path fill="#52B0C9" d="M281.694 620.743l-.93.147-8.066-50.997.93-.147z"/></g><g><path fill="#52B0C9" d="M267.456 565.905l-107.588 15.058-.13-.934 107.587-15.058z"/></g><g><path fill="#52B0C9" d="M151.391 578.124l-.518.786-95.779-63.11.519-.787z"/></g><g><path fill="#52B0C9" d="M154.557 585.026l-8.364 29.072-.904-.26 8.364-29.072z"/></g><g><path fill="#52B0C9" d="M116.032 466.321l-61.387 43.107-.54-.77 61.386-43.107z"/></g><g><path fill="#52B0C9" d="M154.433 575.965l-.901.275-33.068-108.026.9-.276z"/></g><g><path fill="#52B0C9" d="M224.097 468.963l-.052.942-100.25-5.482.052-.942z"/></g><g><path fill="#52B0C9" d="M268.296 562.673l-.522.783-145.243-96.823.522-.783z"/></g><g><path fill="#52B0C9" d="M221.17 396.782l-98.056 64.978-.52-.784 98.056-64.978z"/></g><g><path fill="#52B0C9" d="M117.391 459.659l-.794.503-90.8-143.168.794-.504z"/></g><g><path fill="#52B0C9" d="M353.29 522.262l-24.399 91.78-.908-.242 24.398-91.78z"/></g><g><path fill="#52B0C9" d="M258.753 346.236l-.334.878-101.77-38.747.335-.879z"/></g><g><path fill="#52B0C9" d="M226.175 465.715l-.86.386-70.33-156.739.86-.386z"/></g><g><path fill="#52B0C9" d="M149.615 306.886L27.842 312.86l-.046-.94 121.773-5.974z"/></g><g><path fill="#52B0C9" d="M19.205 314.819l-41.583 12.918-.28-.898 41.584-12.92z"/></g><g><path fill="#52B0C9" d="M51.053 508.095l-.931.132-27.105-190.444.93-.133z"/></g><g><path fill="#52B0C9" d="M49.045 516.48l-76.395 85.583-.7-.626 76.393-85.583z"/></g><g><path fill="#52B0C9" d="M58.402 616.303l-.937.058-6.213-99.046.937-.059z"/></g><g><path fill="#52B0C9" d="M48.03 509.95l-.51.79-81.108-52.432.51-.79z"/></g><g><path fill="#52B0C9" d="M221.171 391.2l-.342.876-193.965-75.633.342-.877z"/></g><g><path fill="#52B0C9" d="M352.007 514.64l-.658.673-122.985-120.301.658-.673z"/></g><g><path fill="#52B0C9" d="M477.22 237.572L443.132 380.43l-.973-.233 34.088-142.857z"/></g><g><path fill="#52B0C9" d="M438.215 242.793l-59.634 76.423-.788-.615 59.634-76.423z"/></g><g><path fill="#52B0C9" d="M559.16 284.325l-25.128 70.84-.942-.334 25.127-70.84z"/></g><g><path fill="#52B0C9" d="M675.348 299.208l-16.974 24.171-.818-.574 16.973-24.172z"/></g><g><path fill="#52B0C9" d="M808.938 353.66l-.975.218-27.302-121.76.975-.219z"/></g><g><path fill="#52B0C9" d="M804.77 355.559l-.426.905-123.313-57.997.426-.905z"/></g><g><path fill="#52B0C9" d="M529.856 354.224l-.925.382-48.708-117.844.924-.382z"/></g><g><path fill="#52B0C9" d="M183.76 263.238l-27.27 39.042-.82-.572 27.27-39.042z"/></g><g><path fill="#52B0C9" d="M260.555 344.666l-.75.662-71.914-81.467.75-.661z"/></g><g><path fill="#52B0C9" d="M340.368 395.397l-.975.223-42.512-186.105.974-.223z"/></g><g><path fill="#52B0C9" d="M373.13 318.677l-.837.547-72.273-110.723.838-.547z"/></g><path fill="none" stroke="#52B0C9" stroke-miterlimit="10" d="M379.951 323.436l147.708 32.844"/><g><path fill="#52B0C9" d="M87.502 219.697l-61.05 89.988-.828-.562 61.05-89.988z"/></g><g><path fill="#52B0C9" d="M23.19 309.37l-.999.058-7.747-131.987.998-.059z"/></g></g></svg>