<svg id="logo" xmlns="http://www.w3.org/2000/svg" viewBox="0 0 408 206"><path fill="#2e3034" d="M312.799 14.047h-39.835l-40.382 58.766L212.31 43.54h-30.975V14.047h-32.728v29.495l-43.256-.003V53.89c-5.467-4.092-8.42-6.104-14.749-8.66-6.137-2.483-13.599-3.844-22.493-3.844a53.11 53.11 0 0 0-19.168 3.553A48.029 48.029 0 0 0 32.58 55.383c-4.734 4.593-8.539 10.226-11.413 16.902-2.869 6.673-4.306 14.315-4.306 22.927v.434c0 8.612 1.404 16.252 4.199 22.93 2.801 6.673 6.566 12.309 11.306 16.902a47.996 47.996 0 0 0 16.367 10.438c6.165 2.373 12.625 3.55 19.376 3.55 8.753 0 16.124-1.443 21.867-4.751 5.738-3.297 10.596-6.792 15.809-13.183v.31c0 14.969-12.134 27.103-27.103 27.103H34.698L16.861 191.67H83.85c29.95 0 54.229-24.279 54.229-54.229v-65.91h10.528v55.596c0 17.128 9.361 31.821 31.815 31.821l32.041-.006 20.041-28.935 19.72 28.935h39.993l-39.874-57.585 60.456-87.31zM96.485 95.62c0 3.384-.631 6.518-1.883 9.401-1.257 2.886-2.981 5.363-5.168 7.425-2.198 2.068-4.796 3.669-7.806 4.796-3.01 1.128-6.268 1.691-9.779 1.691-7.022 0-12.85-2.13-17.489-6.391-4.638-4.258-6.954-9.902-6.954-16.922v-.378c0-3.384.626-6.515 1.877-9.401 1.256-2.883 2.981-5.36 5.173-7.428 2.192-2.065 4.762-3.666 7.71-4.794 2.942-1.13 6.171-1.693 9.682-1.693s6.769.563 9.779 1.693c3.009 1.128 5.607 2.728 7.806 4.794 2.187 2.068 3.911 4.545 5.168 7.428 1.251 2.886 1.883 6.016 1.883 9.401v.378zm98.787 30.594h-4.165c-5.394 0-9.773-4.373-9.773-9.767V71.531h10.68l20.453 29.887-17.195 24.796z"/><path fill="#61b9d5" d="M389.612 120.99c0 21.681-17.575 39.261-39.255 39.261-21.68 0-39.255-17.575-39.255-39.261 0-21.675 17.575-39.252 39.255-39.252 21.68 0 39.255 17.577 39.255 39.252M321.998 44.802c0-15.665 12.697-28.359 28.359-28.359 15.662 0 28.359 12.694 28.359 28.359 0 15.661-12.697 28.356-28.359 28.356-15.662-.001-28.359-12.695-28.359-28.356"/></svg>
