<svg id="logoLines" xmlns="http://www.w3.org/2000/svg" viewBox="0 0 600 600"><style>.st0,.st1{fill:none;stroke:#2e3034;stroke-width:2;stroke-miterlimit:10}.st1{stroke:#61b9d5}</style><path class="st0" d="M266.743 320.016v-66.163h15.732l88.69 128.76h58.911L312.369 212.622h-45.628v-43.444h-48.21v43.449l-63.718-.004v15.246c-8.053-6.028-12.403-8.991-21.726-12.756-9.04-3.657-20.032-5.662-33.132-5.662-9.731 0-19.144 1.749-28.235 5.234-9.09 3.491-17.119 8.622-24.101 15.384-6.974 6.766-12.578 15.063-16.812 24.897-4.226 9.829-6.343 21.087-6.343 33.772v.64c0 12.685 2.068 23.94 6.185 33.776 4.126 9.829 9.672 18.131 16.654 24.897 6.982 6.757 15.01 11.888 24.109 15.375 9.082 3.496 18.597 5.229 28.543 5.229 12.893 0 24.848-3.907 33.379-8.654 8.235-4.582 18.25-15.25 23-26 9.559-18.75 6.333-45-9.167-65-12.833-17.333-32-18-39.833-18C85 251 70.412 269.932 70.412 289.053s15.759 34.622 35.197 34.622a35.53 35.53 0 0 0 15.549-3.553"/><path class="st0" d="M144.05 370.637c-7.247 7.396-17.347 11.985-28.519 11.985h-64.79l-26.275 48.201h98.678c44.118 0 79.882-35.765 79.882-79.882v-97.088h15.507v24.697h-.153c1.225 64.46 68.894 55.854 68.894 55.854l114.443-165.226h58.678l-147.8 213.435-47.197.009c-33.075 0-46.865-21.643-46.865-46.874"/><path class="st1" d="M512.222 286.187c-25.531 0-46.226 20.697-46.226 46.228 0 28.368 22.996 51.363 51.363 51.363 31.519 0 57.071-25.551 57.071-57.071 0-31.159-22.744-56.303-53.212-62.737-30.468-6.434-48.31-21.737-48.31-48.494 0-24.081 19.522-43.603 43.603-43.603 21.674 0 39.243 17.569 39.243 39.243 0 19.506-15.813 35.319-35.319 35.319"/></svg>
